<svg width="574" height="200" viewBox="0 0 574 200" fill="none" xmlns="http://www.w3.org/2000/svg">
<path d="M53.97 135.47C62.12 135.47 68.72 132.99 73.75 128.04C78.78 123.09 81.3 116.53 81.3 108.38V43.16H107.68V107.42C107.68 115.57 106.4 122.93 103.84 129.48C101.28 136.04 97.69 141.63 93.05 146.27C88.41 150.91 82.78 154.46 76.14 156.94C69.51 159.41 62.11 160.66 53.96 160.66C45.81 160.66 38.41 159.42 31.78 156.94C25.14 154.46 19.47 150.91 14.75 146.27C10.03 141.63 6.39003 136.04 3.84003 129.48C1.28003 122.93 0 115.57 0 107.42V43.16H26.38V108.38C26.38 116.53 28.94 123.09 34.05 128.04C39.16 133 45.8 135.47 53.95 135.47H53.97Z" fill="white"/>
<path d="M173.08 69.53C164.77 69.53 158.09 71.97 153.06 76.85C148.02 81.73 145.51 88.24 145.51 96.39V160.65H119.13V96.39C119.13 88.72 120.49 81.61 123.21 75.05C125.93 68.5 129.68 62.86 134.48 58.14C139.28 53.43 144.95 49.75 151.51 47.11C158.06 44.47 165.26 43.15 173.09 43.15C180.92 43.15 188.11 44.47 194.67 47.11C201.22 49.75 206.9 53.43 211.7 58.14C216.5 62.86 220.21 68.5 222.85 75.05C225.49 81.61 226.81 88.72 226.81 96.39V160.65H200.43V96.39C200.43 88.24 197.95 81.73 193 76.85C188.04 71.98 181.41 69.53 173.1 69.53H173.08Z" fill="white"/>
<path d="M240.03 0.0100098V101.9H266.41V0.0100098H240.03Z" fill="#919191"/>
<path d="M303.56 0C308.35 0 312.35 1.60002 315.55 4.80002C318.75 8.00002 320.35 11.99 320.35 16.79C320.35 21.59 318.75 25.58 315.55 28.78C312.35 31.98 308.36 33.58 303.56 33.58C298.76 33.58 294.77 31.99 291.57 28.78C288.37 25.58 286.78 21.59 286.78 16.79C286.78 11.99 288.38 8.00002 291.57 4.80002C294.77 1.60002 298.76 0 303.56 0Z" fill="#919191"/>
<path d="M290.37 45.56H316.75V136.31C316.75 143.59 310.85 149.5 303.56 149.5C296.28 149.5 290.37 143.6 290.37 136.31V45.56Z" fill="#919191"/>
<path d="M444.45 75.04C441.79 68.52 438.09 62.88 433.29 58.13C428.5 53.42 422.82 49.75 416.25 47.14C409.69 44.48 402.52 43.15 394.66 43.15C386.8 43.15 379.64 44.48 373.07 47.14C366.51 49.76 360.87 53.42 356.03 58.13C351.24 62.88 347.49 68.52 344.79 75.04C342.05 81.6 340.68 88.73 340.68 96.38V101.9H367.06V96.38C367.06 88.24 369.6 81.72 374.63 76.85C379.66 71.98 386.35 69.52 394.65 69.52C402.95 69.52 409.59 71.98 414.54 76.85C419.49 81.72 421.99 88.25 421.99 96.38V160.65H448.37V96.38C448.37 88.73 447.04 81.6 444.42 75.04H444.45Z" fill="#919191"/>
<path d="M558.86 45.56C558.86 57.23 556.38 67.58 551.43 76.61C546.47 85.64 539.44 92.96 530.33 98.55C534.8 101.75 539 105.74 542.92 110.54C546.84 115.34 550.71 121.09 554.55 127.81L573.49 160.66H543.04L527.93 134.52C525.21 129.89 522.53 126.01 519.9 122.89C517.27 119.78 514.43 117.26 511.39 115.34C508.35 113.42 505 112.06 501.32 111.26C497.64 110.46 493.41 110.06 488.61 110.06H487.41V160.65H461.03V0H487.41V84.16H489.81C503.39 84.16 513.91 80.77 521.34 73.97C528.77 67.17 532.49 57.7 532.49 45.56H558.87H558.86Z" fill="#919191"/>
<path d="M367.09 125.86V136.33C367.09 155.66 358.47 172.98 344.82 184.62C333.75 194.12 319.37 199.84 303.58 199.84H303.54C287.79 199.84 273.38 194.12 262.3 184.62C248.65 172.98 240.03 155.66 240.03 136.33V125.86H266.41V136.33C266.41 156.83 283.04 173.46 303.54 173.46H303.58C324.08 173.46 340.71 156.83 340.71 136.33V125.86H367.09Z" fill="#919191"/>
</svg>
