<?xml version="1.0" encoding="UTF-8"?>
<svg id="Layer_1" xmlns="http://www.w3.org/2000/svg" version="1.1" viewBox="0 0 1920 1080">
  <!-- Generator: Adobe Illustrator 30.1.0, SVG Export Plug-In . SVG Version: 2.1.1 Build 136)  -->
  <defs>
    <style>
      .st0 {
        fill: #fff;
      }

      .st1 {
        fill: #919191;
      }
    </style>
  </defs>
  <rect x="420" y="-420" width="1080" height="1920" transform="translate(1500 -420) rotate(90)"/>
  <g>
    <path class="st0" d="M727.22,575.55c8.15,0,14.75-2.48,19.78-7.43s7.55-11.51,7.55-19.66v-65.22h26.38v64.26c0,8.15-1.28,15.51-3.84,22.06-2.56,6.56-6.15,12.15-10.79,16.79-4.64,4.64-10.27,8.19-16.91,10.67-6.63,2.47-14.03,3.72-22.18,3.72s-15.55-1.24-22.18-3.72c-6.64-2.48-12.31-6.03-17.03-10.67-4.72-4.64-8.36-10.23-10.91-16.79-2.56-6.55-3.84-13.91-3.84-22.06v-64.26h26.38v65.22c0,8.15,2.56,14.71,7.67,19.66,5.11,4.96,11.75,7.43,19.9,7.43Z"/>
    <path class="st0" d="M846.33,509.61c-8.31,0-14.99,2.44-20.02,7.32-5.04,4.88-7.55,11.39-7.55,19.54v64.26h-26.38v-64.26c0-7.67,1.36-14.78,4.08-21.34,2.72-6.55,6.47-12.19,11.27-16.91,4.8-4.71,10.47-8.39,17.03-11.03,6.55-2.64,13.75-3.96,21.58-3.96s15.02,1.32,21.58,3.96c6.55,2.64,12.23,6.32,17.03,11.03,4.8,4.72,8.51,10.36,11.15,16.91,2.64,6.56,3.96,13.67,3.96,21.34v64.26h-26.38v-64.26c0-8.15-2.48-14.66-7.43-19.54-4.96-4.87-11.59-7.32-19.9-7.32Z"/>
    <path class="st1" d="M913.28,440.09v101.89h26.38v-101.89h-26.38Z"/>
    <path class="st1" d="M976.81,440.08c4.79,0,8.79,1.6,11.99,4.8,3.2,3.2,4.8,7.19,4.8,11.99s-1.6,8.79-4.8,11.99c-3.2,3.2-7.19,4.8-11.99,4.8s-8.79-1.59-11.99-4.8c-3.2-3.2-4.79-7.19-4.79-11.99s1.6-8.79,4.79-11.99c3.2-3.2,7.19-4.8,11.99-4.8Z"/>
    <path class="st1" d="M963.62,485.64h26.38v90.75c0,7.28-5.9,13.19-13.19,13.19h0c-7.28,0-13.19-5.9-13.19-13.19v-90.75Z"/>
    <path class="st1" d="M1117.7,515.12c-2.66-6.52-6.36-12.16-11.16-16.91-4.79-4.71-10.47-8.38-17.04-10.99-6.56-2.66-13.73-3.99-21.59-3.99s-15.02,1.33-21.59,3.99c-6.56,2.62-12.2,6.28-17.04,10.99-4.79,4.75-8.54,10.39-11.24,16.91-2.74,6.56-4.11,13.69-4.11,21.34v5.52h26.38v-5.52c0-8.14,2.54-14.66,7.57-19.53,5.03-4.87,11.72-7.33,20.02-7.33s14.94,2.46,19.89,7.33c4.95,4.87,7.45,11.4,7.45,19.53v64.27h26.38v-64.27c0-7.65-1.33-14.78-3.95-21.34Z"/>
    <path class="st1" d="M1232.11,485.64c0,11.67-2.48,22.02-7.43,31.05-4.96,9.03-11.99,16.35-21.1,21.94,4.47,3.2,8.67,7.19,12.59,11.99,3.92,4.8,7.79,10.55,11.63,17.27l18.94,32.85h-30.45l-15.11-26.14c-2.72-4.63-5.4-8.51-8.03-11.63-2.63-3.11-5.47-5.63-8.51-7.55-3.04-1.92-6.39-3.28-10.07-4.08-3.68-.8-7.91-1.2-12.71-1.2h-1.2v50.59h-26.38v-160.65h26.38v84.16h2.4c13.58,0,24.1-3.39,31.53-10.19,7.43-6.8,11.15-16.27,11.15-28.41h26.38Z"/>
    <path class="st1" d="M1040.34,565.94v10.47c0,19.33-8.62,36.65-22.27,48.29-11.07,9.5-25.45,15.22-41.24,15.22h-.04c-15.75,0-30.16-5.72-41.24-15.22-13.65-11.64-22.27-28.96-22.27-48.29v-10.47h26.38v10.47c0,20.5,16.63,37.13,37.13,37.13h.04c20.5,0,37.13-16.63,37.13-37.13v-10.47h26.38Z"/>
  </g>
</svg>